HIERARCHY
ROOT Hips
{
	OFFSET 0.000000 0.000000 0.000000
	CHANNELS 6 Xposition Yposition Zposition Xrotation Yrotation Zrotation
	JOINT LeftUpLeg_virtual
	{
		OFFSET 0.000000 0.000000 0.000000
		CHANNELS 3 Xrotation Yrotation Zrotation
		JOINT LeftUpLeg
		{
			OFFSET 15.427100 -6.655098 0.678600
			CHANNELS 3 Xrotation Yrotation Zrotation
			JOINT LeftLeg
			{
				OFFSET 4.081073 -39.591068 13.024000
				CHANNELS 3 Xrotation Yrotation Zrotation
				JOINT LeftFoot
				{
					OFFSET -4.081074 -37.707932 -15.979700
					CHANNELS 3 Xrotation Yrotation Zrotation
					JOINT LeftToeBase
					{
						OFFSET 5.346399 -15.068900 20.645000
						CHANNELS 3 Xrotation Yrotation Zrotation
						JOINT LeftToe_End
						{
							OFFSET 2.754700 0.931300 11.300900
							CHANNELS 3 Xrotation Yrotation Zrotation
							End Site
							{
								OFFSET 0 0 0
							}
						}
					}
				}
			}
		}
	}
	JOINT RightUpLeg_virtual
	{
		OFFSET 0.000000 0.000000 0.000000
		CHANNELS 3 Xrotation Yrotation Zrotation
		JOINT RightUpLeg
		{
			OFFSET -15.569500 -6.655098 0.678600
			CHANNELS 3 Xrotation Yrotation Zrotation
			JOINT RightLeg
			{
				OFFSET -4.081825 -39.591045 13.023800
				CHANNELS 3 Xrotation Yrotation Zrotation
				JOINT RightFoot
				{
					OFFSET 4.081824 -37.707954 -15.979600
					CHANNELS 3 Xrotation Yrotation Zrotation
					JOINT RightToeBase
					{
						OFFSET -5.346400 -15.068900 20.645000
						CHANNELS 3 Xrotation Yrotation Zrotation
						JOINT RightToe_End
						{
							OFFSET -2.754700 0.931300 11.300900
							CHANNELS 3 Xrotation Yrotation Zrotation
							End Site
							{
								OFFSET 0 0 0
							}
						}
					}
				}
			}
		}
	}
	JOINT Spine_virtual
	{
		OFFSET 0.000000 0.000000 0.000000
		CHANNELS 3 Xrotation Yrotation Zrotation
		JOINT Spine
		{
			OFFSET -0.279200 12.230698 -2.892100
			CHANNELS 3 Xrotation Yrotation Zrotation
			JOINT Spine1
			{
				OFFSET -0.232667 10.192268 -1.242267
				CHANNELS 3 Xrotation Yrotation Zrotation
				JOINT Spine1_split
				{
					OFFSET -0.232667 10.192268 -1.242267
					CHANNELS 3 Xrotation Yrotation Zrotation
					JOINT Spine2
					{
						OFFSET -0.232667 10.192268 -1.242267
						CHANNELS 3 Xrotation Yrotation Zrotation
						JOINT Neck_virtual
						{
							OFFSET 0.000000 0.000000 0.000000
							CHANNELS 3 Xrotation Yrotation Zrotation
							JOINT Neck
							{
								OFFSET -0.418800 17.814194 8.416900
								CHANNELS 3 Xrotation Yrotation Zrotation
								JOINT Head
								{
									OFFSET 0.000000 7.031097 3.806800
									CHANNELS 3 Xrotation Yrotation Zrotation
									JOINT HeadTop_End
									{
										OFFSET 0.000000 24.646606 12.978600
										CHANNELS 3 Xrotation Yrotation Zrotation
										End Site
										{
											OFFSET 0 0 0
										}
									}
								}
							}
						}
						JOINT LeftShoulder_virtual
						{
							OFFSET 0.000000 0.000000 0.000000
							CHANNELS 3 Xrotation Yrotation Zrotation
							JOINT LeftShoulder
							{
								OFFSET 8.476499 7.247704 -3.868750
								CHANNELS 3 Xrotation Yrotation Zrotation
								JOINT LeftShoulder_split
								{
									OFFSET 8.476499 7.247704 -3.868750
									CHANNELS 3 Xrotation Yrotation Zrotation
									JOINT LeftArm
									{
										OFFSET 9.308998 -2.777710 0.208600
										CHANNELS 3 Xrotation Yrotation Zrotation
										JOINT LeftForeArm
										{
											OFFSET 29.972298 0.000000 0.000000
											CHANNELS 3 Xrotation Yrotation Zrotation
											JOINT LeftHand
											{
												OFFSET 26.026505 0.000000 0.000000
												CHANNELS 3 Xrotation Yrotation Zrotation
												End Site
												{
													OFFSET 0 0 0
												}
											}
										}
									}
								}
							}
						}
						JOINT RightShoulder_virtual
						{
							OFFSET 0.000000 0.000000 0.000000
							CHANNELS 3 Xrotation Yrotation Zrotation
							JOINT RightShoulder
							{
								OFFSET -7.570500 7.247704 -3.868750
								CHANNELS 3 Xrotation Yrotation Zrotation
								JOINT RightShoulder_split
								{
									OFFSET -7.570500 7.247704 -3.868750
									CHANNELS 3 Xrotation Yrotation Zrotation
									JOINT RightArm
									{
										OFFSET -9.308998 -2.777710 0.208500
										CHANNELS 3 Xrotation Yrotation Zrotation
										JOINT RightForeArm
										{
											OFFSET -29.972300 0.000000 0.000000
											CHANNELS 3 Xrotation Yrotation Zrotation
											JOINT RightHand
											{
												OFFSET -26.026505 0.000000 0.000000
												CHANNELS 3 Xrotation Yrotation Zrotation
												End Site
												{
													OFFSET 0 0 0
												}
											}
										}
									}
								}
							}
						}
					}
				}
			}
		}
	}
}
MOTION
Frames: 8
Frame Time: 0.03333333
-1.040956 71.720146 3.934906 0.000000 0.000000 0.000000 15.304378 -51.091581 13.590710 -63.248160 22.430129 47.974282 43.700407 -18.812595 -0.989855 1.253631 1.217126 -10.205493 -1.016645 -6.066148 -1.152886 0.000000 0.000000 0.000000 13.503637 -50.944885 13.546336 -24.517924 2.146322 -37.651763 46.516279 10.732158 -8.598876 -30.328253 -5.794247 30.001036 3.670774 4.272027 2.602598 0.000000 0.000000 0.000000 17.584414 -46.917556 14.895294 11.291455 1.757912 -4.249853 3.621606 8.492891 -3.665795 1.184794 -3.642861 1.002995 0.000000 0.000000 0.000000 -2.993830 5.401774 -1.239829 -4.582982 13.756574 4.533691 -4.498466 24.022703 -4.002371 0.000000 0.000000 0.000000 -4.093921 5.574372 -1.787457 0.905119 -11.616033 -0.525050 0.042132 -3.229058 -1.187613 -14.141640 7.477666 -50.137499 -20.736739 -24.504031 -13.631309 0.000000 0.000000 0.000000 -4.229558 4.987928 -1.570030 -2.850639 23.783272 1.199592 3.748739 2.916342 0.909972 9.981212 -33.874333 60.235650 -23.555985 42.610480 19.934199 0.000000 0.000000 0.000000 
-0.152070 71.680405 3.864212 0.000000 0.000000 0.000000 15.384634 -51.367339 13.489388 -62.721907 22.322207 47.994319 44.519412 -18.908914 -1.244062 0.495254 1.265785 -10.417662 -1.099584 -6.150079 -0.852283 0.000000 0.000000 0.000000 13.451200 -50.942259 13.483879 -24.982978 2.745851 -38.179549 44.880627 10.816559 -7.979539 -29.907431 -5.516974 29.905768 3.046102 4.370175 2.512113 0.000000 0.000000 0.000000 17.014443 -47.224129 14.390066 11.281126 1.759381 -4.085536 3.540331 8.291560 -3.755956 0.659849 -3.560263 0.867522 0.000000 0.000000 0.000000 -3.259120 5.189974 -1.234854 -4.558492 13.502634 4.225371 -4.170344 24.275145 -4.297979 0.000000 0.000000 0.000000 -4.333550 5.377189 -1.802078 0.819607 -11.369823 -0.273187 1.178370 -2.772259 -1.183557 -13.338480 8.014202 -50.005359 -20.558070 -24.848621 -13.868026 0.000000 0.000000 0.000000 -4.427375 4.789184 -1.568348 -2.961697 23.495130 1.740293 4.058418 2.770757 0.853026 11.037065 -34.442592 61.196589 -23.498873 41.795106 19.753032 0.000000 0.000000 0.000000 
1.301410 71.954765 4.010128 0.000000 0.000000 0.000000 15.349049 -52.509115 13.419539 -62.131130 22.646074 48.469215 46.018423 -18.551142 -1.702906 -0.920890 1.669809 -10.258784 -1.274905 -6.205189 -0.483589 0.000000 0.000000 0.000000 13.533998 -52.110863 13.594157 -25.952760 3.509150 -39.293293 41.940066 11.006069 -6.999326 -27.309562 -4.773036 30.804918 3.230316 4.421278 2.429568 0.000000 0.000000 0.000000 16.528819 -48.338021 14.027036 11.280383 1.734232 -3.810209 3.642923 7.768566 -3.734398 0.218954 -3.361764 0.950921 0.000000 0.000000 0.000000 -3.314763 4.653933 -1.150037 -3.704607 12.802111 3.942688 -4.485158 23.738751 -4.721991 0.000000 0.000000 0.000000 -4.423538 4.841846 -1.749341 0.679878 -11.088177 0.072926 2.375523 -2.305349 -0.778594 -12.160969 8.751145 -49.961546 -19.812097 -24.919173 -14.256472 0.000000 0.000000 0.000000 -4.456221 4.265197 -1.518373 -3.198059 22.964846 2.301892 3.977387 2.622269 0.545666 11.530123 -34.404759 61.787708 -23.633952 40.546742 19.788395 0.000000 0.000000 0.000000 
3.034697 72.487350 4.300953 0.000000 0.000000 0.000000 15.283457 -54.437543 13.471273 -61.435250 23.370221 49.216140 47.671258 -17.825385 -2.295336 -2.897352 2.301672 -9.674129 -1.382672 -6.248942 -0.109077 0.000000 0.000000 0.000000 13.597436 -54.071107 13.762559 -27.146375 4.147486 -40.731683 38.600548 11.221582 -5.811594 -22.889251 -3.695585 32.666353 3.773694 4.398417 2.390052 0.000000 0.000000 0.000000 16.253772 -50.119078 13.870653 11.226709 1.694463 -3.430991 3.940977 6.946681 -3.618510 0.039967 -3.241703 1.221203 0.000000 0.000000 0.000000 -3.133347 3.800398 -1.027283 -2.209862 11.734986 3.742705 -5.486971 22.476906 -5.224262 0.000000 0.000000 0.000000 -4.325767 3.973692 -1.663769 0.490820 -10.878313 0.423051 3.486900 -1.800889 -0.063440 -10.949329 9.662947 -49.846372 -18.640884 -24.652523 -14.690881 0.000000 0.000000 0.000000 -4.337223 3.407093 -1.436625 -3.482319 22.251068 2.747773 3.368270 2.261257 0.181306 11.277872 -33.606795 61.908445 -23.972444 39.116084 20.029554 0.000000 0.000000 0.000000 
4.871877 73.148834 4.791782 0.000000 0.000000 0.000000 15.139075 -56.823547 13.539345 -60.475110 24.454295 49.924544 49.049487 -16.909378 -2.930359 -5.116741 2.977148 -8.758626 -1.374741 -6.298359 0.190261 0.000000 0.000000 0.000000 13.507116 -56.362919 13.808623 -28.108467 4.189994 -42.122893 35.248868 11.196153 -4.659468 -18.108464 -2.874972 34.581446 4.374118 4.226159 2.473467 0.000000 0.000000 0.000000 16.237581 -52.351955 13.888928 11.071738 1.656143 -2.926897 4.420209 5.842700 -3.429725 0.136510 -3.101306 1.535308 0.000000 0.000000 0.000000 -2.732088 2.647841 -0.909207 -0.398297 10.389234 3.670954 -7.033270 20.602844 -5.731750 0.000000 0.000000 0.000000 -3.994901 2.788829 -1.568476 0.285519 -10.836221 0.740402 4.440822 -1.209329 0.724535 -10.044858 10.826554 -49.674798 -17.210733 -23.960223 -15.082880 0.000000 0.000000 0.000000 -4.035045 2.240072 -1.345033 -3.790248 21.399671 2.984427 2.407885 1.664419 -0.047934 10.450499 -32.145138 61.741290 -24.408888 37.574858 20.326552 0.000000 0.000000 0.000000 
6.700060 73.882111 5.305874 0.000000 0.000000 0.000000 14.840410 -59.310200 13.502349 -59.256788 25.720153 50.247243 49.934444 -15.910873 -3.480717 -7.182805 3.500515 -7.613112 -1.261680 -6.348825 0.368469 0.000000 0.000000 0.000000 13.256842 -58.481009 13.627100 -28.223604 3.373142 -43.243441 32.013243 10.699261 -3.766723 -14.430492 -2.945286 35.593099 4.895066 3.886315 2.725145 0.000000 0.000000 0.000000 16.387046 -54.713490 14.005358 10.755208 1.631690 -2.286986 5.059705 4.478790 -3.207009 0.188475 -3.017044 1.690006 0.000000 0.000000 0.000000 -2.113121 1.229685 -0.831497 1.382287 8.851745 3.745635 -8.880181 18.342283 -6.177025 0.000000 0.000000 0.000000 -3.415471 1.317187 -1.484025 0.081746 -10.963782 0.960646 5.034931 -0.691542 1.179858 -9.634290 12.178793 -49.563380 -15.686996 -22.836372 -15.347106 0.000000 0.000000 0.000000 -3.587549 0.803168 -1.248108 -4.120113 20.527628 2.970227 1.444884 0.968376 -0.123271 9.299939 -30.184389 61.569224 -24.825448 35.980777 20.519804 0.000000 0.000000 0.000000 
8.546797 74.669037 5.696526 0.000000 0.000000 0.000000 14.395660 -61.592590 13.242288 -57.937667 27.182505 50.135648 50.300040 -14.879034 -3.938675 -8.862415 3.712107 -6.325048 -1.059860 -6.419331 0.381663 0.000000 0.000000 0.000000 12.893713 -60.432093 13.238869 -27.396543 1.655933 -43.951489 29.358854 9.687370 -3.205564 -12.163528 -4.026556 35.288958 5.426208 3.436547 3.177841 0.000000 0.000000 0.000000 16.653220 -57.042366 14.223966 10.229685 1.604543 -1.554041 5.801428 2.865656 -2.977478 0.236660 -2.858391 1.492344 0.000000 0.000000 0.000000 -1.312980 -0.400560 -0.798018 2.919969 7.215470 3.956962 -10.715564 15.894089 -6.505868 0.000000 0.000000 0.000000 -2.591064 -0.387008 -1.395532 -0.109577 -11.235455 1.013411 5.089403 -0.140182 1.174187 -9.650567 13.558563 -49.782500 -14.293222 -21.486810 -15.485743 0.000000 0.000000 0.000000 -3.005504 -0.869391 -1.146788 -4.421860 19.734020 2.762658 0.688499 0.462163 -0.204250 8.196409 -27.888359 61.778931 -25.134512 34.425171 20.510184 0.000000 0.000000 0.000000 
10.340669 75.570602 6.046867 0.000000 0.000000 0.000000 13.805247 -63.509913 12.756032 -56.625369 28.787827 49.535305 50.186396 -13.795740 -4.359136 -10.087250 3.611991 -5.086513 -0.815944 -6.525049 0.262082 0.000000 0.000000 0.000000 12.448792 -62.358596 12.711377 -26.014939 -0.791479 -44.174720 27.740779 8.275673 -2.859955 -10.815085 -5.892969 33.970424 5.833528 2.928620 3.749987 0.000000 0.000000 0.000000 16.767889 -59.257328 14.350098 9.521452 1.539498 -0.805971 6.584123 1.058637 -2.762040 0.257033 -2.551438 1.142571 0.000000 0.000000 0.000000 -0.378689 -2.172506 -0.786484 4.045916 5.558446 4.323581 -12.255481 13.364497 -6.658995 0.000000 0.000000 0.000000 -1.594768 -2.242041 -1.261313 -0.281453 -11.601636 0.931948 4.862965 0.545125 0.897169 -9.984921 14.851570 -50.549407 -13.169195 -20.269269 -15.544841 0.000000 0.000000 0.000000 -2.300835 -2.721255 -1.049301 -4.691908 19.106851 2.402103 0.303418 0.201059 -0.411031 7.284339 -25.678955 62.527971 -25.329444 33.212123 20.310973 0.000000 0.000000 0.000000 
